<svg width="36" height="40" viewBox="0 0 36 40" fill="none" xmlns="http://www.w3.org/2000/svg">
  <path
    d="M17.7257 3.71584C17.7257 1.66364 19.3894 0 21.4416 0H32.2841C34.3363 0 35.9999 1.66364 35.9999 3.71584C35.9999 5.76805 34.3363 7.43168 32.2841 7.43168H21.4416C19.3894 7.43168 17.7257 5.76805 17.7257 3.71584Z"
    fill="#6C6D72" />
  <path
    d="M0.0287476 36.2842C0.0287476 34.232 1.69239 32.5683 3.74459 32.5683H10.7399C12.7921 32.5683 14.4558 34.232 14.4558 36.2842C14.4558 38.3364 12.7921 40 10.7399 40H3.74459C1.69239 40 0.0287476 38.3364 0.0287476 36.2842Z"
    fill="#6C6D72" />
  <path
    d="M20.1763 0H11.8435C5.31606 0 0.0222804 5.28737 0.0143776 11.8149C0.00644615 18.366 5.32429 23.6759 11.8754 23.6583L24.9608 23.6231C27.43 23.6164 29.4375 25.6121 29.4454 28.0813C29.4533 30.5571 27.4486 32.5683 24.9728 32.5683H12.2702C8.59645 32.5683 7.15082 37.3308 10.2047 39.373C10.816 39.7818 11.5349 40 12.2702 40H24.0603C30.5847 40 35.8715 34.7067 35.8636 28.1824C35.8557 21.6692 30.5735 16.3934 24.0603 16.3934H10.9542C8.47971 16.3934 6.47365 14.3876 6.47333 11.9131C6.473 9.4382 8.47925 7.43169 10.9542 7.43169H20.1763C24.102 7.43169 25.3457 2.1358 21.8302 0.388394C21.3163 0.132939 20.7502 0 20.1763 0Z"
    fill="#24252D" />
</svg>