<svg width="36" height="40" viewBox="0 0 36 40" fill="none" xmlns="http://www.w3.org/2000/svg">
  <path
    d="M17.7257 3.71584C17.7257 1.66364 19.3893 0 21.4416 0H32.2841C34.3363 0 35.9999 1.66364 35.9999 3.71584C35.9999 5.76805 34.3363 7.43169 32.2841 7.43169H21.4415C19.3893 7.43169 17.7257 5.76805 17.7257 3.71584Z"
    fill="#B5B5B5" />
  <path
    d="M0.0286865 36.2841C0.0286865 34.2319 1.69233 32.5683 3.74453 32.5683H10.7398C12.792 32.5683 14.4557 34.2319 14.4557 36.2841C14.4557 38.3363 12.792 40 10.7398 40H3.74453C1.69233 40 0.0286865 38.3363 0.0286865 36.2841Z"
    fill="#B5B5B5" />
  <path
    d="M20.1763 0H11.8435C5.31606 0 0.0222804 5.28738 0.0143776 11.8149C0.00644615 18.366 5.32429 23.6759 11.8754 23.6583L24.9608 23.6231C27.43 23.6164 29.4375 25.6121 29.4454 28.0814C29.4533 30.5571 27.4486 32.5683 24.9728 32.5683H12.2702C8.59645 32.5683 7.15082 37.3308 10.2047 39.373C10.816 39.7818 11.5349 40 12.2702 40H24.0603C30.5847 40 35.8715 34.7067 35.8636 28.1824C35.8557 21.6692 30.5735 16.3934 24.0603 16.3934H10.9542C8.47971 16.3934 6.47365 14.3876 6.47333 11.9131C6.473 9.4382 8.47925 7.43169 10.9542 7.43169H20.1763C24.102 7.43169 25.3457 2.1358 21.8302 0.388394C21.3163 0.132939 20.7502 0 20.1763 0Z"
    fill="white" />
</svg>